<?xml version="1.0" ?><svg height="32" id="svg2" overflow="visible" style="fill-rule:evenodd;stroke-width:0.50099999;stroke-linejoin:bevel;overflow:visible" version="1.1" viewBox="0 0 25.600005 25.600001" width="32" xmlns="http://www.w3.org/2000/svg" xmlns:cc="http://creativecommons.org/ns#" xmlns:dc="http://purl.org/dc/elements/1.1/" xmlns:inkscape="http://www.inkscape.org/namespaces/inkscape" xmlns:rdf="http://www.w3.org/1999/02/22-rdf-syntax-ns#" xmlns:sodipodi="http://sodipodi.sourceforge.net/DTD/sodipodi-0.dtd" xmlns:svg="http://www.w3.org/2000/svg" xmlns:xlink="http://www.w3.org/1999/xlink"><script id="script3301" xlink:href=""/><script id="script3299" xlink:href=""/><defs id="defs4"><marker id="DefaultArrow2" markerHeight="1" markerUnits="strokeWidth" markerWidth="1" orient="auto" overflow="visible" style="overflow:visible" viewBox="0 0 1 1"><g id="g7" transform="scale(0.00925926,0.00925926)"><path d="M -9,54 -9,-54 117,0 z" id="path9"/></g></marker><marker id="DefaultArrow3" markerHeight="1" markerUnits="strokeWidth" markerWidth="1" orient="auto" overflow="visible" style="overflow:visible" viewBox="0 0 1 1"><g id="g12" transform="scale(0.00925926,0.00925926)"><path d="M -27,54 -9,0 -27,-54 135,0 z" id="path14"/></g></marker><marker id="DefaultArrow4" markerHeight="1" markerUnits="strokeWidth" markerWidth="1" orient="auto" overflow="visible" style="overflow:visible" viewBox="0 0 1 1"><g id="g17" transform="scale(0.00925926,0.00925926)"><path d="M -9,0 -9,-45 C -9,-51.708 2.808,-56.58 9,-54 L 117,-9 C 120.916,-7.369 126,-4.242 126,0 126,4.242 120.916,7.369 117,9 L 9,54 C 2.808,56.58 -9,51.708 -9,45 z" id="path19"/></g></marker><marker id="DefaultArrow5" markerHeight="1" markerUnits="strokeWidth" markerWidth="1" orient="auto" overflow="visible" style="overflow:visible" viewBox="0 0 1 1"><g id="g22" transform="scale(0.00925926,0.00925926)"><path d="M -54,0 C -54,29.807 -29.807,54 0,54 29.807,54 54,29.807 54,0 54,-29.807 29.807,-54 0,-54 -29.807,-54 -54,-29.807 -54,0 z" id="path24"/></g></marker><marker id="DefaultArrow6" markerHeight="1" markerUnits="strokeWidth" markerWidth="1" orient="auto" overflow="visible" style="overflow:visible" viewBox="0 0 1 1"><g id="g27" transform="scale(0.00925926,0.00925926)"><path d="M -63,0 0,63 63,0 0,-63 z" id="path29"/></g></marker><marker id="DefaultArrow7" markerHeight="1" markerUnits="strokeWidth" markerWidth="1" orient="auto" overflow="visible" style="overflow:visible" viewBox="0 0 1 1"><g id="g32" transform="scale(0.00925926,0.00925926)"><path d="M 18,-54 108,-54 63,0 108,54 18,54 -36,0 z" id="path34"/></g></marker><marker id="DefaultArrow8" markerHeight="1" markerUnits="strokeWidth" markerWidth="1" orient="auto" overflow="visible" style="overflow:visible" viewBox="0 0 1 1"><g id="g37" transform="scale(0.00925926,0.00925926)"><path d="M -36,0 18,-54 54,-54 18,-18 27,-18 63,-54 99,-54 63,-18 72,-18 108,-54 144,-54 90,0 144,54 108,54 72,18 63,18 99,54 63,54 27,18 18,18 54,54 18,54 z" id="path39"/></g></marker><marker id="DefaultArrow9" markerHeight="1" markerUnits="strokeWidth" markerWidth="1" orient="auto" overflow="visible" style="overflow:visible" viewBox="0 0 1 1"><g id="g42" transform="scale(0.00925926,0.00925926)"><path d="M 0,45 -45,0 0,-45 45,0 z M 0,63 -63,0 0,-63 63,0 z" id="path44"/></g></marker><filter color-interpolation-filters="sRGB" id="StainedFilter"><feBlend id="feBlend47" in="SourceGraphic" in2="BackgroundImage" mode="multiply" result="blend"/><feComposite id="feComposite49" in="blend" in2="SourceAlpha" operator="in" result="comp"/></filter><filter color-interpolation-filters="sRGB" id="BleachFilter"><feBlend id="feBlend52" in="SourceGraphic" in2="BackgroundImage" mode="screen" result="blend"/><feComposite id="feComposite54" in="blend" in2="SourceAlpha" operator="in" result="comp"/></filter><filter color-interpolation-filters="sRGB" id="InvertTransparencyBitmapFilter"><feComponentTransfer id="feComponentTransfer57"><feFuncR amplitude="1.055" exponent=".416666666" id="feFuncR59" offset="-0.055" type="gamma"/><feFuncG amplitude="1.055" exponent=".416666666" id="feFuncG61" offset="-0.055" type="gamma"/><feFuncB amplitude="1.055" exponent=".416666666" id="feFuncB63" offset="-0.055" type="gamma"/></feComponentTransfer><feComponentTransfer id="feComponentTransfer65"><feFuncR id="feFuncR67" intercept="1" slope="-1" type="linear"/><feFuncG id="feFuncG69" intercept="1" slope="-1" type="linear"/><feFuncB id="feFuncB71" intercept="1" slope="-1" type="linear"/><feFuncA id="feFuncA73" intercept="0" slope="1" type="linear"/></feComponentTransfer><feComponentTransfer id="feComponentTransfer75"><feFuncR amplitude="1" exponent="2.4" id="feFuncR77" offset="0" type="gamma"/><feFuncG amplitude="1" exponent="2.4" id="feFuncG79" offset="0" type="gamma"/><feFuncB amplitude="1" exponent="2.4" id="feFuncB81" offset="0" type="gamma"/></feComponentTransfer></filter><radialGradient cx="0" cy="0" gradientTransform="matrix(0,-1,0.886054,0,172.174,122.358)" gradientUnits="userSpaceOnUse" id="RadialGradient" r="237.42799"><stop id="stop84" offset="0" stop-color="#473600"/><stop id="stop86" offset="0.792135000228882" stop-color="#3d2f00"/><stop id="stop88" offset="0.990000009536743" stop-color="#3a2c00"/><stop id="stop90" offset="1" stop-color="#3a2c00"/></radialGradient><radialGradient cx="0" cy="0" gradientTransform="matrix(0,-1,0.886054,0,170.916,119.88)" gradientUnits="userSpaceOnUse" id="RadialGradient_1" r="237.42799"><stop id="stop93" offset="0" stop-color="#553e00"/><stop id="stop95" offset="0.792135000228882" stop-color="#403200"/><stop id="stop97" offset="0.990000009536743" stop-color="#3b2b00"/><stop id="stop99" offset="1" stop-color="#3b2b00"/></radialGradient><radialGradient cx="0" cy="0" gradientTransform="matrix(0,-1,0.886054,0,169.66,117.403)" gradientUnits="userSpaceOnUse" id="RadialGradient_2" r="237.42799"><stop id="stop102" offset="0" stop-color="#634700"/><stop id="stop104" offset="0.792135000228882" stop-color="#443400"/><stop id="stop106" offset="0.990000009536743" stop-color="#3c2a00"/><stop id="stop108" offset="1" stop-color="#3c2a00"/></radialGradient><radialGradient cx="0" cy="0" gradientTransform="matrix(0,-1,0.886054,0,168.403,114.925)" gradientUnits="userSpaceOnUse" id="RadialGradient_3" r="237.42799"><stop id="stop111" offset="0" stop-color="#724f00"/><stop id="stop113" offset="0.792135000228882" stop-color="#473600"/><stop id="stop115" offset="0.990000009536743" stop-color="#3c2900"/><stop id="stop117" offset="1" stop-color="#3c2900"/></radialGradient><radialGradient cx="0" cy="0" gradientTransform="matrix(0,-1,0.886054,0,167.146,112.448)" gradientUnits="userSpaceOnUse" id="RadialGradient_4" r="237.42799"><stop id="stop120" offset="0" stop-color="#805800"/><stop id="stop122" offset="0.792135000228882" stop-color="#4b3800"/><stop id="stop124" offset="0.990000009536743" stop-color="#3d2800"/><stop id="stop126" offset="1" stop-color="#3d2800"/></radialGradient><radialGradient cx="0" cy="0" gradientTransform="matrix(0,-1,0.886054,0,165.889,109.97)" gradientUnits="userSpaceOnUse" id="RadialGradient_5" r="237.42799"><stop id="stop129" offset="0" stop-color="#8e6000"/><stop id="stop131" offset="0.792135000228882" stop-color="#4e3b00"/><stop id="stop133" offset="0.990000009536743" stop-color="#3e2700"/><stop id="stop135" offset="1" stop-color="#3e2700"/></radialGradient><radialGradient cx="0" cy="0" gradientTransform="matrix(0,-1,0.886054,0,164.632,107.493)" gradientUnits="userSpaceOnUse" id="RadialGradient_6" r="237.42799"><stop id="stop138" offset="0" stop-color="#9c6900"/><stop id="stop140" offset="0.792135000228882" stop-color="#523d00"/><stop id="stop142" offset="0.990000009536743" stop-color="#3f2600"/><stop id="stop144" offset="1" stop-color="#3f2600"/></radialGradient><linearGradient gradientTransform="translate(218.601,165.399)" gradientUnits="userSpaceOnUse" id="LinearGradient" x1="0" x2="42.75" y1="0" y2="36.75"><stop id="stop147" offset="0" stop-color="#5c5c5c"/><stop id="stop149" offset="1" stop-color="#000000"/></linearGradient><linearGradient gradientTransform="translate(181.122,157.792)" gradientUnits="userSpaceOnUse" id="LinearGradient_1" x1="0" x2="-9.6719999" y1="0" y2="-141.858"><stop id="stop152" offset="0" stop-color="#ffffff"/><stop id="stop154" offset="1" stop-color="#cfd1d2"/></linearGradient><linearGradient gradientTransform="translate(259.851,172.899)" gradientUnits="userSpaceOnUse" id="LinearGradient_2" x1="0" x2="69.75" y1="0" y2="-189.75"><stop id="stop157" offset="0" stop-color="#b5b5b5"/><stop id="stop159" offset="1" stop-color="#000000"/></linearGradient><linearGradient gradientTransform="translate(204.11,87.059)" gradientUnits="userSpaceOnUse" id="LinearGradient_3" x1="0" x2="-51.527" y1="0" y2="-64.410004"><stop id="stop162" offset="0" stop-color="#df9000"/><stop id="stop164" offset="0.730337023735046" stop-color="#7f5200"/><stop id="stop166" offset="0.990000009536743" stop-color="#3f2600"/><stop id="stop168" offset="1" stop-color="#3f2600"/></linearGradient><linearGradient gradientTransform="translate(199.945,96.333)" gradientUnits="userSpaceOnUse" id="LinearGradient_4" x1="0" x2="19.041" y1="0" y2="85.190002"><stop id="stop171" offset="0" stop-color="#ba7d00"/><stop id="stop173" offset="0.792135000228882" stop-color="#7f5200"/><stop id="stop175" offset="0.990000009536743" stop-color="#3f2600"/><stop id="stop177" offset="1" stop-color="#3f2600"/></linearGradient><linearGradient gradientTransform="translate(129.134,111.014)" gradientUnits="userSpaceOnUse" id="LinearGradient_5" x1="0" x2="-1.007" y1="0" y2="-63.535999"><stop id="stop180" offset="0" stop-color="#df9000"/><stop id="stop182" offset="0.792135000228882" stop-color="#7f5200"/><stop id="stop184" offset="0.990000009536743" stop-color="#3f2600"/><stop id="stop186" offset="1" stop-color="#3f2600"/></linearGradient><linearGradient gradientTransform="translate(129.286,104.867)" gradientUnits="userSpaceOnUse" id="LinearGradient_6" x1="0" x2="15.098" y1="0" y2="58.375"><stop id="stop189" offset="0" stop-color="#df9000"/><stop id="stop191" offset="0.792135000228882" stop-color="#7f5200"/><stop id="stop193" offset="0.990000009536743" stop-color="#3f2600"/><stop id="stop195" offset="1" stop-color="#3f2600"/></linearGradient><radialGradient cx="0" cy="0" gradientTransform="matrix(0.69735527,-0.71672563,1.2319152,1.1986212,183.351,196.899)" gradientUnits="userSpaceOnUse" id="RadialGradient_7" r="38.716999"><stop id="stop198" offset="0" stop-color="#6b4c29"/><stop id="stop200" offset="1" stop-color="#a57348"/></radialGradient><radialGradient cx="0" cy="0" gradientTransform="matrix(0,-1,0.973942,0,134.346,314.993)" gradientUnits="userSpaceOnUse" id="RadialGradient_8" r="120.999"><stop id="stop203" offset="0" stop-color="#e0bf9e"/><stop id="stop205" offset="1.68539006263018E-02" stop-color="#e0bf9e"/><stop id="stop207" offset="0.202246993780136" stop-color="#e6b891"/><stop id="stop209" offset="1" stop-color="#7b5d39"/></radialGradient><radialGradient cx="0" cy="0" gradientTransform="matrix(-0.01429027,-0.99989789,1.2061368,-0.01723778,146.601,370.899)" gradientUnits="userSpaceOnUse" id="RadialGradient_9" r="87.054001"><stop id="stop212" offset="0" stop-color="#9a9a9a"/><stop id="stop214" offset="1" stop-color="#313131"/></radialGradient><linearGradient gradientTransform="translate(213.351,257.649)" gradientUnits="userSpaceOnUse" id="LinearGradient_7" x1="0" x2="-54" y1="0" y2="-87"><stop id="stop217" offset="0" stop-color="#484848"/><stop id="stop219" offset="1" stop-color="#000000"/></linearGradient><linearGradient gradientTransform="translate(133.101,343.149)" gradientUnits="userSpaceOnUse" id="LinearGradient_8" x1="0" x2="10.5" y1="0" y2="-85.5"><stop id="stop222" offset="0" stop-color="#8d8d8d"/><stop id="stop224" offset="1" stop-color="#000000"/></linearGradient><linearGradient gradientTransform="translate(239.24,380.259)" gradientUnits="userSpaceOnUse" id="LinearGradient_9" x1="0" x2="3.5999999" y1="0" y2="-129"><stop id="stop227" offset="0" stop-color="#ffffff"/><stop id="stop229" offset="1" stop-color="#000000"/></linearGradient><linearGradient gradientTransform="translate(115.007,352.336)" gradientUnits="userSpaceOnUse" id="LinearGradient_10" x1="0" x2="108" y1="0" y2="-33.75"><stop id="stop232" offset="0" stop-color="#ffffff"/><stop id="stop234" offset="1" stop-color="#000000"/></linearGradient><linearGradient gradientTransform="translate(226.61,87.059)" gradientUnits="userSpaceOnUse" id="LinearGradient_11" x1="0" x2="-51.527" y1="0" y2="-64.410004"><stop id="stop237" offset="0" stop-color="#df9000"/><stop id="stop239" offset="0.730337023735046" stop-color="#7f5200"/><stop id="stop241" offset="0.990000009536743" stop-color="#3f2600"/><stop id="stop243" offset="1" stop-color="#3f2600"/></linearGradient></defs><g id="g3140" transform="matrix(0.64050449,0,0,0.64031522,0,25.600003)"><path d="M 0,-3.5564341 0,-36.423882 C 0,-38.386167 1.5920123,-39.980316 3.5553832,-39.980316 L 36.413119,-39.980316 C 38.374824,-39.980316 39.968502,-38.386167 39.968502,-36.423882 L 39.968502,-3.5564341 C 39.968502,-1.5924829 38.374824,0 36.413119,0 L 3.5553832,0 C 1.5920123,0 0,-1.5924829 0,-3.5564341 z M 38.719538,-3.5564341 38.719538,-36.423882 C 38.719538,-37.69487 37.683731,-38.730983 36.413119,-38.730983 L 3.5553832,-38.730983 C 2.2831055,-38.730983 1.2489636,-37.69487 1.2489636,-36.423882 L 1.2489636,-3.5564341 C 1.2489636,-2.2837804 2.2831055,-1.2493328 3.5553832,-1.2493328 L 36.413119,-1.2493328 C 37.683731,-1.2493328 38.719538,-2.2837804 38.719538,-3.5564341 z" id="path3142" style="fill:#000000;fill-opacity:1;fill-rule:evenodd;stroke:none"/><path d="M 9.9933745,-6.8863225 10.040002,-33.105654 C 10.040002,-33.270566 10.104949,-33.430481 10.221519,-33.547085 10.341419,-33.665355 10.499621,-33.731986 10.66615,-33.731986 L 22.016731,-33.731986 C 25.953465,-33.731986 29.557141,-31.63977 29.55048,-27.305418 29.548815,-24.671825 28.829412,-23.204275 27.442229,-21.998252 L 26.811086,-21.506848 27.265709,-21.335273 C 27.447225,-21.261979 27.615419,-21.19035 27.748642,-21.122054 28.539652,-20.713938 29.010928,-20.292497 29.505517,-19.76278 30.970968,-18.203612 31.224091,-16.74106 31.224091,-14.492261 31.224091,-8.9202364 26.086687,-6.2616561 21.438877,-6.2616561 L 10.617856,-6.2616561 C 10.271477,-6.2616561 9.9917092,-6.5415067 9.9933745,-6.8863225 z M 29.975128,-14.492261 C 29.975128,-16.606132 29.743653,-17.685555 28.594606,-18.908236 28.163298,-19.371322 27.801931,-19.689485 27.177449,-20.01098 26.832735,-20.189218 25.588767,-20.590671 25.199091,-20.828877 L 25.145801,-20.865524 C 24.779439,-21.122054 24.794426,-21.673426 25.175777,-21.9083 27.330655,-23.244254 28.301516,-24.322011 28.303182,-27.307084 28.306512,-30.715264 25.572114,-32.482653 22.016731,-32.482653 L 11.285636,-32.482653 11.242338,-7.5109889 21.438877,-7.5109889 C 25.78194,-7.5109889 29.975128,-9.9413577 29.975128,-14.492261 z M 16.834365,-11.09241 C 16.487985,-11.09241 16.208218,-11.37226 16.209883,-11.717076 L 16.211548,-18.240259 C 16.211548,-18.585075 16.491316,-18.864926 16.83603,-18.864926 18.314803,-18.864926 20.288166,-19.048161 21.798579,-18.710008 23.465529,-18.335209 24.72948,-17.290766 24.686183,-14.967007 24.646216,-12.724871 23.390591,-11.700418 21.770269,-11.308961 20.274843,-10.947487 18.349774,-11.09241 16.834365,-11.09241 z M 21.477179,-12.523312 C 22.642878,-12.804829 23.410575,-13.406174 23.438884,-14.988662 23.46886,-16.631119 22.70949,-17.224135 21.525472,-17.49066 20.859358,-17.638914 20.108315,-17.670563 19.312309,-17.6639 L 17.457181,-17.627253 17.457181,-12.333414 16.834365,-12.341743 C 18.519633,-12.341743 20.174926,-12.20848 21.477179,-12.523312 z M 16.834365,-22.191483 C 16.489651,-22.191483 16.209883,-22.471333 16.209883,-22.816149 L 16.209883,-26.219332 16.208218,-28.30655 C 16.206552,-28.651366 16.48632,-28.932882 16.832699,-28.932882 18.018382,-28.932882 19.582085,-29.064479 20.772763,-28.784628 22.118314,-28.469796 23.130807,-27.598595 23.130807,-25.737922 23.130807,-23.818947 22.286507,-22.831141 20.944288,-22.429689 19.776923,-22.081541 18.206559,-22.191483 16.834365,-22.191483 z M 20.586252,-23.627382 C 21.348952,-23.855594 21.881843,-24.323677 21.881843,-25.737922 21.881843,-26.943945 21.345621,-27.367052 20.488,-27.568611 19.733626,-27.743518 18.829376,-27.720197 17.843527,-27.698542 L 17.455516,-27.691879 17.458847,-26.220997 17.457181,-23.434152 16.834365,-23.440815 C 18.38308,-23.440815 19.648696,-23.347532 20.586252,-23.627382 z" id="path3144" style="fill:#000000;fill-opacity:1;fill-rule:evenodd;stroke:none"/></g></svg>